<svg xmlns="http://www.w3.org/2000/svg" version="1.1" viewBox="0 0 2048 1953" width="738" height="704">
<path transform="translate(778,304)" d="m0 0h58l28 4 24 5 24 7 28 11 30 15 17 11 16 11 13 10 12 11 10 10 8 6 6 8 10 10 13 18 12 17 10 17 8 14 5 12 2 6 7 1 1 1h6l18-10 19-10 11-5 10-4 11-4 14-4 5-2 16-4 12-2 7-2 21-3 24-2h19l32 3 23 4 27 7 26 9 19 8 26 13 34 22 12 10 11 9 13 11 5 6 6 8 12 12 8 11 13 18 12 20 10 19 11 24 10 30 4 17 3 14 4 30 1 13v30l-3 30-5 28-8 28-11 29-14 29-13 21-13 18-8 10-9 10h-2l-2 6-21 21-6 4-7 7-11 8-13 9-21 13-27 14-6 3 1 5 1 6-5 2 3 9 12 19 16 26 13 22 17 28 19 32 17 28 12 20 13 21 24 40 17 28 19 32 15 24 8 13 3 5 11 5 5 6-1 4-3 2h-5l-1 5-9 10-14 14-10 7-14 10-11 7-19 12-11 6-23 13-25 13-19 10-15 8-7 3-39 19-35 16-20 9-17 8-10 4-18 8-37 15-17 7-19 8-13 5-14 6-13 5-15 6-13 5-19 7-22 8-9 3-5 2-7 2-4 1-1-1-2-12-5-10-9-2-12 2-9 4-10 7-8 8-12 19-4 8-1 3-30 10-7 2-17 5-9 2-18 6-19 5-13 3-11 4-12 3-9 2-25 6-18 4-7 1-13 2-12 2-16 1-2 1h-16l-4-1-10-1-1-2-3 1h-8l-1-2v-12l1-2v-12l-3-14-2-11-1-9-2-5-4-21-5-21-2-10-1-10-2-5-4-21-5-22v-5l-2-4-1-10-2-5-5-24-3-14-1-9-2-7-1-8-2-4-5-25-1-9-2-5-1-9-2-7-3-14-5-23-1-9-2-6-1-8-2-7-3-15-2-7v-4l-6-1-3-3 1-5-19 5-20 7-7 1-15 4-9 1-8 2-12 1-2 1-12 1h-36l-17-1-2-1-18-2-6-1-18-4-12-3-9-3-5-1-12-5-9-3-14-6-19-9-5-4-10-5-10-6-8-6-10-7-5-4-11-9-10-10-6-4-7-9v-2l-4-2-5-5v-2h-2l-7-8-7-9-10-14-9-14-12-20-9-19-4-10-7-18-7-24-4-17-3-18-3-28v-38l1-14 1-3 2-15 1-2 1-10 2-5 2-12 6-18 2-9 14-34 7-13 12-21 11-16 6-8 10-12 7-8 12-13 15-15 8-7 19-14 14-10 21-12 16-8 17-8 36-12 9-2 5-1 7-2 3-6 2-3-1-6-7-20-1-7-2-7-3-13-3-16-1-7-1-10-1-27-1-4 1-3 2-34 2-13 2-7 1-10 6-21 6-20 11-26 11-22 8-14 12-19 7-9 10-13 7-8 26-26 9-7 12-10 17-12 13-8 24-13 24-11 18-6 4-1 1-1h7v-2l14-4 13-3 21-3z" fill="#EDA87B"/>
<path transform="translate(1423,1096)" d="m0 0h12l2 4v4l-5 2 3 9 12 19 16 26 13 22 17 28 19 32 17 28 12 20 13 21 24 40 17 28 19 32 15 24 8 13 3 5 11 5 5 6-1 4-3 2h-5l-1 5-9 10-14 14-10 7-14 10-11 7-19 12-11 6-23 13-25 13-19 10-15 8-7 3-39 19-35 16-20 9-17 8-10 4-18 8-37 15-17 7-19 8-13 5-14 6-13 5-15 6-13 5-19 7-22 8-9 3-5 2-7 2-4 1-1-1-2-12-5-10-9-2-12 2-9 4-10 7-8 8-12 19-4 8-1 3-30 10-7 2-17 5-9 2-18 6-19 5-13 3-11 4-12 3-9 2-25 6-18 4-7 1-13 2-12 2-16 1-2 1h-16l-4-1-10-1-1-2-3 1h-8l-1-2v-12l1-2v-12l-3-14-2-11-1-9-2-5-4-21-5-21-2-10-1-10-2-5-4-21-5-22v-5l-2-4-1-10-2-5-5-24-3-14-1-9-2-7-1-8-2-4-5-25-1-9-2-5-1-9-2-7-3-14-5-23-1-9-2-6-1-8-2-7-3-15-2-7v-4l-6-1-3-3v-3h2l1-4 11-9 12-12 2-3h2l2-4 13-15 12-17 9-14 11-20 7-18 5-20 2-15v-18l-3-18-6-19v-5l4-3 5 1 5 12 5 17 2 14v19l-2 15-5 21-8 20-8 16-8 14-11 16-9 12 19-12 24-14 27-15 22-11 19-10 46-23 31-14 21-9 29-13 46-19 43-17 64-24 90-30 42-12 52-14 38-9 37-7z" fill="#15191D"/>
<path transform="translate(747,1359)" d="m0 0 2 1 14 57 28 115 22 91 28 115v3l8-5 3 1 1 9 11-6 24-13 19-10 86-43 22-10-4-7 1-3 5-3 5 1 1 7h3l27-12 42-19 38-16 53-21h3l-5-10 5-3 5-1 3 6v4l20-8 58-22 52-18 38-13v-2l-3-5v-4l3-1h7l2 3v5h3l41-13 51-15 53-15 26-6h2v-2l-3-1-2-3 1-4 10-1 1 2v6l16-2 24-4 19-2h13l12 2 6 4 5 1v1h-5l-1 5-9 10-14 14-10 7-14 10-11 7-19 12-11 6-23 13-25 13-19 10-15 8-7 3-39 19-35 16-20 9-17 8-10 4-18 8-37 15-17 7-19 8-13 5-14 6-13 5-15 6-13 5-19 7-22 8-9 3-5 2-7 2-4 1-1-1-2-12-5-10-9-2-12 2-9 4-10 7-8 8-12 19-4 8-1 3-30 10-7 2-17 5-9 2-18 6-19 5-13 3-11 4-12 3-9 2-25 6-18 4-7 1-13 2-12 2-16 1-2 1h-16l-4-1-10-1-1-2-3 1h-8l-1-2v-12l1-2v-12l-3-14-2-11-1-9-2-5-4-21-5-21-2-10-1-10-2-5-4-21-5-22v-5l-2-4-1-10-2-5-5-24-3-14-1-9-2-7-1-8-2-4-5-25-1-9-2-5-1-9-2-7-3-14-5-23-1-9-2-6-1-8-2-7-3-15-2-7v-4l-3-1 8-4 17-13 11-7z" fill="#EDA87B"/>
<path transform="translate(1040,1218)" d="m0 0 3 3 22 55 15 39 25 63 13 33 33 84 17 43 13 33 2 5v5l-12 5-35 14-40 17-27 12-34 15-14 6-4-9-15-43-12-36-15-43-18-53-15-43-16-47-15-43-17-50 1-3 28-13 34-15 43-18 32-13z" fill="#EDA87B"/>
<path transform="translate(1199,1161)" d="m0 0 5 1 19 42 18 41 18 40 16 36 19 43 18 40 36 81 13 29-1 3-36 12-52 18-52 20-24 9-3-1-12-31-17-43-15-38-18-46-17-43-22-56-17-43-22-56-1-6 12-5 70-26 38-13z" fill="#EDA87B"/>
<path transform="translate(1349,1120)" d="m0 0h2l14 25 12 21 15 27 14 24 13 24 13 23 14 25 13 23 28 50 9 16 13 23 14 25 9 16 12 20-1 3-41 9-80 23-50 16-2-2-48-108-19-43-88-198-1-6 50-15 41-11z" fill="#EDA87B"/>
<path transform="translate(881,1287)" d="m0 0 4 1 19 55 43 125 19 55 13 38 15 43 15 44 2 7-15 7-33 16-25 12-44 22-22 12-19 11h-2l-4-15-21-87-14-57-24-99-19-78-10-42v-5l16-10 27-15 33-17 37-19z" fill="#EDA87B"/>
<path transform="translate(1431,1106)" d="m0 0 6 12 15 24 21 35 17 28 19 32 17 28 15 25 13 21 24 40 17 28 19 32 15 24 8 13 3 6-12-1h-16l-25 3-28 5h-5l-56-100-13-23-10-18-14-25-13-23-56-100-13-23-14-25-2-3v-4l39-7z" fill="#EDA87B"/>
<path transform="translate(1699,633)" d="m0 0 77 2 84 3 66 2 52 2-1 13-9 59-5 35-4 24-9-1-12-4-14-3-26-7-14-4-26-7-12-3-21-6-30-8-18-5-13-4-17-4-21-6-38-10 1-12 7-45 1-9z" fill="#FEC84D"/>
<path transform="translate(1497,153)" d="m0 0 6 1 37 10 25 7 24 7 29 8 7 2-1 4-11 28-15 36-12 29-13 32-15 36-15 37-16 38-5 13-3 6-11-2-13-4-9-2-10-3-9-2-11-3-1-1v-13l8-51 8-50 4-27 4-24 4-28 10-62 3-20z" fill="#FEC84D"/>
<path transform="translate(1789,302)" d="m0 0 4 2 9 10 12 14 7 7 7 8 12 14 7 7 9 11 14 15 6 7 3 3-4 4-16 11-18 13-16 11-34 24-23 16-18 13-16 11-17 12-40 28-17 12-9 7-4-2-8-8-9-11-12-13-10-11-4-6 7-7 9-11 8-8 9-11 13-14 7-8 9-10 12-14 12-13 6-8h2l2-4 11-12 9-10 9-11 7-7 9-11 8-8 9-11 14-15 9-11z" fill="#FEC84D"/>
<path transform="translate(1116,508)" d="m0 0 4 1 3 3-2 5-11 8-19 14-11 10-8 7-12 13-9 11-13 18-9 15-8 16-6 15-5 15-4 19-2 15v36l2 16-3 4h-6l-3-7-2-17v-28l3-25 5-21 7-19 12-25 11-18 13-17 9-11 28-28 14-11 15-11z" fill="#15191D"/>
<path transform="translate(495,749)" d="m0 0 4 1 11 13 12 14 17 17 8 7 10 9 18 13 17 11 18 10 23 11 22 8 38 10 2 2-1 6-2 2-13-1-23-6-28-10-22-10-20-12-21-14-12-9-10-8-10-9-8-7-16-17-9-10-8-11-1-3z" fill="#15191D"/>
<path transform="translate(840,1742)" d="m0 0 2 1 3 5 3 2-26 17-19 13-10 9-5 4-7 9-1 2-1 9-1 1h-8l-1-2v-12l5-9 12-12 14-11 17-12 14-9z" fill="#15191D"/>
</svg>