<?xml version="1.0" standalone="no"?>
<svg version="1.0" xmlns="http://www.w3.org/2000/svg" viewBox="0 0 400 400" preserveAspectRatio="xMidYMid meet">

<g transform="translate(0.000000,400.000000) scale(0.100000,-0.100000)" stroke="none">
<path d="M1854 3944 c-65 -23 -209 -75 -319 -114 -110 -40 -211 -76 -225 -80
-39 -13 -356 -125 -450 -160 -47 -17 -103 -38 -125 -45 -22 -7 -67 -23 -100
-35 -62 -23 -366 -130 -445 -157 -25 -9 -49 -19 -54 -24 -11 -10 17 -278 84
-809 5 -41 17 -140 25 -220 9 -80 25 -217 35 -305 11 -88 26 -223 35 -300 20
-181 52 -458 71 -608 8 -66 14 -134 14 -153 0 -46 2 -48 205 -158 37 -20 139
-77 595 -331 91 -51 197 -109 235 -130 39 -21 151 -84 250 -139 99 -56 205
-114 236 -130 61 -32 54 -33 153 23 22 13 134 75 250 138 116 64 216 119 221
123 6 4 39 23 75 42 36 20 85 46 110 60 25 14 77 42 115 63 63 34 247 136 380
210 57 32 143 80 263 145 67 37 82 49 82 69 0 13 9 85 19 160 11 75 27 197 36
271 9 74 25 203 35 285 11 83 26 209 35 280 9 72 25 198 35 280 11 83 26 209
35 280 9 72 25 195 35 275 10 80 28 217 40 305 11 88 22 189 23 224 l2 65 -50
18 c-27 10 -183 63 -345 118 -162 54 -428 145 -590 200 -162 56 -356 122 -430
147 -74 25 -193 66 -265 90 -231 79 -195 76 -331 27z m-169 -1548 c149 -421
273 -762 277 -758 5 5 413 1154 525 1480 l15 42 289 0 289 0 0 -1065 0 -1065
-220 0 -220 0 0 316 c0 174 9 519 20 766 12 248 20 457 18 464 -2 7 -130 -336
-284 -764 l-282 -777 -154 -3 -154 -2 -280 774 c-158 440 -280 765 -282 752
-2 -13 6 -234 17 -490 12 -257 21 -594 21 -751 l0 -285 -225 0 -225 0 0 518
c0 284 3 763 7 1065 l6 547 286 0 286 0 270 -764z"/>
</g>
</svg>
